<svg xmlns="http://www.w3.org/2000/svg" fill="none" viewBox="0 0 122 63" height="63" width="122">
<path fill="black" d="M11.5012 30.4883L14.9739 12.761L18.4839 30.4883H24.5796L29.9286 0.401367H23.9169L21.0697 19.3142L17.5317 0.401367H12.4254L8.89674 19.2955L6.06822 0.401367H0.00976562L5.38676 30.4883H11.5012Z"></path>
<path fill="black" d="M43.5946 30.9084C46.9833 30.9084 49.6344 29.7882 51.5388 27.5571C53.4431 25.326 54.4046 22.1894 54.4046 18.1567V13.0131C54.3766 8.89631 53.3965 5.69439 51.4734 3.41663C49.5411 1.13888 46.9086 0 43.5573 0C40.206 0 37.4988 1.15755 35.5852 3.48198C33.6715 5.80641 32.71 9.02701 32.71 13.1624V18.3061C32.738 22.2828 33.7181 25.382 35.6412 27.5944C37.5735 29.8069 40.2247 30.9084 43.5946 30.9084ZM38.7778 12.8077C38.8058 10.2032 39.2072 8.26153 39.9726 6.99196C40.7474 5.71306 41.933 5.07827 43.548 5.07827C45.1629 5.07827 46.3765 5.74106 47.142 7.05731C47.9168 8.38289 48.2995 10.3993 48.2995 13.1158V18.3434C48.2995 20.9012 47.8888 22.7962 47.1233 24.0191C46.3485 25.242 45.1723 25.8488 43.5853 25.8488C41.9983 25.8488 40.7381 25.2233 39.9446 23.9818C39.1605 22.7309 38.7684 20.7985 38.7684 18.166V12.817L38.7778 12.8077Z"></path>
<path fill="black" d="M64.832 19.5008H67.8472L72.3747 30.4975H78.8999V30.2082L73.635 17.8952C76.5382 16.2989 77.9944 13.4984 77.9944 9.50299C77.9944 6.59979 77.1636 4.35004 75.502 2.77241C73.8403 1.19479 71.4879 0.410645 68.4447 0.410645H58.7549V30.4975H64.832V19.5008ZM64.832 5.47025H68.3887C70.7411 5.47025 71.9267 6.98253 71.9267 9.99775C71.9267 11.3513 71.6279 12.4249 71.0212 13.2277C70.4144 14.0305 69.5089 14.4319 68.2953 14.4319H64.8413V5.47025H64.832Z"></path>
<path fill="black" d="M98.9141 25.4473H88.2441V0.401367H82.167V30.4883H98.9141V25.4473Z"></path>
<path fill="black" d="M118.845 27.109C120.936 24.8592 121.972 21.7507 121.972 17.8019V12.929C121.935 9.04563 120.871 5.98373 118.78 3.75265C116.689 1.52157 113.888 0.401367 110.378 0.401367H102.425V30.4883H110.22C113.888 30.4883 116.763 29.3587 118.845 27.109ZM108.502 5.46097H110.714C112.6 5.51698 113.935 6.09575 114.719 7.20663C115.503 8.3175 115.895 10.2779 115.895 13.0877V18.3153C115.858 20.9292 115.419 22.7775 114.598 23.8417C113.767 24.9059 112.348 25.4473 110.322 25.4473H108.502V5.47031V5.46097Z"></path>
<path fill="black" d="M9.48442 62.2276C12.4343 62.2276 14.7401 61.2568 16.4017 59.3151C18.0633 57.3734 18.8942 54.6476 18.8942 51.1376V46.6567C18.8662 43.0721 18.0167 40.2902 16.3364 38.3019C14.656 36.3135 12.3596 35.324 9.44708 35.324C6.53454 35.324 4.17277 36.3322 2.5018 38.3579C0.830821 40.3742 0 43.1841 0 46.7781V51.2589C0.0280052 54.7222 0.877496 57.4201 2.55781 59.3431C4.23812 61.2661 6.54388 62.2276 9.48442 62.2276ZM5.29298 46.4794C5.32099 44.211 5.66638 42.5306 6.33851 41.4198C7.01063 40.3089 8.04682 39.7581 9.44708 39.7581C10.8473 39.7581 11.9022 40.3369 12.5743 41.4851C13.2465 42.6333 13.5825 44.3883 13.5825 46.7501V51.2963C13.5732 53.5273 13.2278 55.1703 12.5557 56.2345C11.8835 57.2987 10.8567 57.8215 9.48442 57.8215C8.11217 57.8215 7.0013 57.28 6.31984 56.1972C5.63838 55.1143 5.29298 53.4247 5.29298 51.1376V46.4794Z"></path>
<path fill="black" d="M22.6846 61.8728H27.9682V51.1935H36.1924V46.806H27.9682V40.0941H37.1819V35.688H22.6846V61.8728Z"></path>
<path fill="black" d="M81.5607 57.4854H72.2817V35.688H66.998V61.8728H81.5607V57.4854Z"></path>
<path fill="black" d="M84.6221 35.688V61.8728H89.9057V52.6685H93.4344C96.1322 52.6685 98.2419 51.9217 99.7635 50.4374C101.285 48.9531 102.051 46.9274 102.051 44.3603C102.051 41.7931 101.276 39.7114 99.7355 38.1058C98.1952 36.5001 96.1322 35.6973 93.5371 35.6973H84.6221V35.688ZM95.8615 41.2704C96.4216 42.0452 96.711 43.0814 96.711 44.3883C96.711 45.6952 96.4309 46.61 95.8802 47.2635C95.3294 47.9263 94.5452 48.253 93.5464 48.253H89.915V40.0848H93.6024C94.5452 40.0848 95.3014 40.4862 95.8708 41.261H95.8615V41.2704Z"></path>
<path fill="black" d="M118.052 36.3415C116.791 35.66 115.363 35.324 113.757 35.324C111.349 35.324 109.361 35.9961 107.792 37.331C106.224 38.6659 105.449 40.4396 105.449 42.6427C105.449 44.463 106.028 46.0406 107.176 47.3849C108.324 48.7198 110.219 49.8867 112.843 50.8855C114.28 51.4736 115.27 52.0431 115.82 52.5845C116.362 53.1259 116.642 53.9381 116.642 55.0023C116.642 56.9533 115.718 57.9335 113.869 57.9335C112.535 57.9335 111.582 57.5881 110.994 56.9066C110.406 56.2252 110.117 55.1236 110.117 53.6114H104.814C104.814 55.3757 105.207 56.9066 105.991 58.1949C106.775 59.4924 107.867 60.482 109.258 61.1821C110.649 61.8729 112.189 62.2276 113.879 62.2276C116.371 62.2276 118.341 61.5835 119.797 60.3046C121.244 59.0257 121.972 57.2427 121.972 54.9649C121.972 52.8926 121.394 51.1842 120.236 49.84C119.078 48.4957 117.221 47.3662 114.672 46.442C113.207 45.8166 112.189 45.2191 111.62 44.631C111.041 44.0523 110.761 43.3988 110.761 42.68C110.761 41.7558 111.022 41.0184 111.536 40.4769C112.049 39.9355 112.768 39.6554 113.692 39.6554C114.672 39.6554 115.428 39.9728 115.951 40.617C116.474 41.2611 116.735 42.1946 116.735 43.4175H122C122 41.8492 121.664 40.4489 120.983 39.2074C120.301 37.9751 119.34 37.0136 118.08 36.3415H118.052Z"></path>
<path fill="black" d="M51.1748 57.2707C51.1281 57.1493 51.0721 57.028 51.0254 56.8973C50.9788 56.7759 50.9228 56.6546 50.8668 56.5426C50.7827 56.3652 50.68 56.2065 50.568 56.0571C50.4467 56.2252 50.3346 56.3932 50.2226 56.5706C49.6812 57.4107 49.1211 58.2695 48.2529 58.6523C48.449 58.867 48.673 59.0537 48.729 59.3711C48.7477 59.4644 48.7477 59.5764 48.8037 59.6325C48.8317 59.6605 48.869 59.6698 48.9064 59.6791C49.2051 59.7351 49.5132 59.7538 49.8212 59.7258C49.9706 59.7258 50.1199 59.6978 50.26 59.7258C50.372 59.7445 50.4933 59.7912 50.568 59.9032C50.6427 60.0152 50.68 60.1739 50.7361 60.3046C50.8574 60.5473 51.0815 60.6687 51.2962 60.7153C51.5109 60.762 51.7349 60.762 51.9496 60.8367C52.1643 60.9114 52.3697 61.0981 52.435 61.3781C52.3977 60.6593 52.0056 60.0712 51.6696 59.4924C51.6136 59.3897 51.5482 59.2777 51.5202 59.147C51.4829 58.979 51.5015 58.7923 51.5015 58.6149C51.5015 58.1388 51.3242 57.7001 51.1561 57.28H51.1748V57.2707Z"></path>
<path fill="black" d="M43.2964 61.8728H44.8647C44.9768 61.5181 45.0888 61.1634 45.1915 60.8086C45.2475 60.93 45.2941 61.0514 45.3408 61.182C45.6022 60.734 45.8636 59.8938 46.097 59.7258C46.5917 59.371 46.8718 58.6149 47.3665 58.2882C47.5626 58.1575 47.7866 58.1015 47.992 58.0175C49.1775 57.56 49.7283 55.9731 50.7645 54.7689C51.4926 55.525 51.7727 55.749 52.3981 56.3652C52.8649 56.0944 53.2663 55.3196 53.6397 54.8622C53.8544 54.5915 54.0224 54.2274 54.4145 53.8353C55.0306 54.6195 55.3387 54.9649 55.8894 55.4036C56.4962 55.8891 56.2442 55.693 57.0283 56.5519C57.3084 56.4678 57.8311 56.0384 58.2699 55.721C58.5873 56.0851 58.7646 56.4865 58.914 56.9253C59.026 57.2613 59.1287 57.6161 59.2594 57.9988C59.3341 58.2228 59.4088 58.4562 59.5208 58.6522C59.6888 58.9323 59.9409 59.091 60.1742 59.2777C60.3889 59.4457 60.585 59.6324 60.781 59.8285C60.781 59.8098 60.7623 59.7911 60.753 59.7724C60.949 59.9592 61.1544 60.1085 61.3691 60.2299C61.4345 60.3045 61.4905 60.3886 61.5558 60.4632C61.8639 60.8553 62.1533 61.2754 62.4333 61.6955C62.4707 61.7515 62.5173 61.8168 62.5547 61.8728H64.5337L56.3002 35.688H51.4646L43.2871 61.8728H43.2964ZM56.3375 52.1084H51.446L53.8917 42.7733L56.3375 52.1084Z"></path>
<path fill="black" d="M58.0268 58.3161C58.0921 58.5961 58.2508 58.8201 58.3535 59.0815C58.4562 59.3522 58.5028 59.651 58.5402 59.9497C58.5589 60.0804 58.5775 60.2111 58.5869 60.3324C58.5869 59.9404 58.5869 59.5576 58.6242 59.1655C58.6615 58.6801 58.7362 58.148 58.5589 57.7186C58.4935 57.5506 58.3815 57.4106 58.3161 57.2425C58.2601 57.0838 58.2321 56.9158 58.1948 56.7478C58.1948 56.7104 58.1761 56.6731 58.1574 56.6357C57.9521 56.7944 57.756 56.9345 57.5693 57.0465C57.588 57.1025 57.6067 57.1585 57.6253 57.2052C57.7094 57.3919 57.8494 57.5319 57.9241 57.7279C57.9894 57.9146 57.9801 58.12 58.0268 58.3161Z"></path>
<path fill="black" d="M47.3568 59.1843C47.2821 59.2777 47.1981 59.3897 47.1141 59.5111C47.002 59.6697 46.89 59.8284 46.75 59.9871C46.75 59.9871 46.75 59.9871 46.7687 59.9965C47.002 60.1458 47.2728 60.2579 47.4408 60.5286C47.5061 60.6406 47.5528 60.7806 47.6462 60.8646C47.7769 60.986 47.9542 60.9486 48.1129 60.93C48.2809 60.9113 48.4583 60.93 48.6263 60.9953C48.7757 61.0513 48.9157 61.154 49.0651 61.2287C49.4945 61.4621 49.9706 61.5461 50.428 61.4714C50.176 61.4714 49.9333 61.3501 49.7372 61.154C49.5785 60.9953 49.4572 60.7806 49.2891 60.6219C48.8877 60.2485 48.3276 60.2952 47.9169 59.9311C47.6928 59.7351 47.5341 59.4364 47.3568 59.1843Z"></path>
<path fill="black" d="M54.4136 56.1505C54.4416 55.8145 54.4789 55.4784 54.4416 55.1517C54.4416 55.049 54.4136 54.9557 54.3856 54.8623C54.3482 54.9183 54.3202 54.965 54.2829 55.0117C54.1989 55.133 54.1149 55.2637 54.0215 55.3851C53.9282 55.5064 53.8161 55.6651 53.6948 55.8332C53.5081 56.1132 53.3027 56.4119 53.0693 56.6546C53.116 56.9347 53.172 57.2054 53.3027 57.4388C53.3401 57.4948 53.3774 57.5508 53.3867 57.6161C53.3867 57.6722 53.3867 57.7188 53.3867 57.7748C53.3587 58.1389 53.2467 58.503 53.312 58.8577C53.3401 59.0444 53.4241 59.2218 53.4988 59.3898C53.6388 59.6885 53.7975 59.9779 53.9562 60.2673C54.0589 60.4447 54.1709 60.65 54.1989 60.8647C54.2176 60.3326 54.3482 59.7819 54.1802 59.3058C54.0682 58.9884 53.8441 58.755 53.7601 58.419C53.7321 58.2976 53.7228 58.1762 53.7135 58.0549C53.6948 57.8402 53.6855 57.6255 53.6668 57.4108C53.6668 57.2614 53.6481 57.1121 53.6668 56.972C54.0589 57.4294 54.0309 58.3349 54.4509 58.7457C54.5349 58.8297 54.6376 58.8857 54.731 58.9604C54.9177 59.1284 55.0484 59.3898 55.095 59.6885C55.1231 59.3898 55.0017 59.1004 54.8803 58.8484C54.7777 58.6337 54.675 58.4283 54.5629 58.2229C54.4509 58.0176 54.3296 57.8029 54.2922 57.5508C54.2736 57.3921 54.2922 57.2334 54.2922 57.0654C54.3202 56.7667 54.3482 56.4586 54.3762 56.1599H54.4043L54.4136 56.1505Z"></path>
</svg>
